PathFileType	4	(X/Y/Z)	pose_F01_0-65.trc
DataRate	CameraRate	NumFrames	NumMarkers	Units	OrigDataRate	OrigDataStartFrame	OrigNumFrames
30	30	8	21	m	30	0	65
Frame#	Time	CHip			RHip			RKnee			RAnkle			RBigToe			RSmallToe			RHeel			LHip			LKnee			LAnkle			LBigToe			LSmallToe			LHeel			Neck			Nose			RShoulder			RElbow			RWrist			LShoulder			LElbow			LWrist			
		X1	Y1	Z1	X2	Y2	Z2	X3	Y3	Z3	X4	Y4	Z4	X5	Y5	Z5	X6	Y6	Z6	X7	Y7	Z7	X8	Y8	Z8	X9	Y9	Z9	X10	Y10	Z10	X11	Y11	Z11	X12	Y12	Z12	X13	Y13	Z13	X14	Y14	Z14	X15	Y15	Z15	X16	Y16	Z16	X17	Y17	Z17	X18	Y18	Z18	X19	Y19	Z19	X20	Y20	Z20	X21	Y21	Z21	
0	0.0	-0.21330864204951383	1.8295533785352946	-0.49574685081337816	-0.22658546820717532	1.828300489799886	-0.44073650744089693	-0.2986594863376571	1.7047998933755084	-0.4918292618211539	-0.5098966264086664	1.5741556371260288	-1.0851409937197658	-0.5678911029948313	1.5532928402829176	-1.23825111304939	-0.5859414310925272	1.5603427942711092	-1.2203756500684597	-0.49769836747544965	1.567638672909994	-1.068829883741299	-0.19935011352888446	1.83142428228355	-0.5504615555398282	-0.19538130839572346	1.7135196116417954	-0.5077165628214468	-0.24874426977789557	1.6109874013768	-0.4284643516778206	-0.25057695076631215	1.5614486880116056	-0.4108154771416426	-0.23839003283671067	1.5657565420905037	-0.43391038924803405	-0.18781827359376624	1.5921850746099413	-0.5052431354259893	-1.7522776643091666	1.8882299153003907	1.1982096940688545	-0.21588602406674243	2.02643388292059	-0.5462622318271049	-0.2237500617334237	1.9740624605017107	-0.4287032383616765	-0.22945025839522226	1.894025761009054	-0.3788560168700558	-0.23918538285229474	1.8226633057205572	-0.39373902712719944	-0.1859805931873618	1.9802300796229715	-0.6031780344487015	-0.17313066179604278	1.902182806958255	-0.5999412840741303	-0.17856795613319784	1.8401637745217032	-0.6250027472219666
1	0.03333333333333333	-0.21329708533677413	1.8287223588180217	-0.4954962736474284	-0.22840873367442793	1.827426920484439	-0.43831832311787944	-0.2986594863376571	1.7047998933755084	-0.4918292618211539	-0.5098966264086664	1.5741556371260288	-1.0851409937197658	-0.5678911029948313	1.5532928402829176	-1.23825111304939	-0.5859414310925272	1.5603427942711092	-1.2203756500684597	-0.49769836747544965	1.567638672909994	-1.068829883741299	-0.1993525108113326	1.831369063416435	-0.5504100715194393	-0.19917632141006014	1.712394349535721	-0.5110334255034618	-0.24874426977789557	1.6109874013768	-0.4284643516778206	-0.25057695076631215	1.5614486880116056	-0.4108154771416426	-0.23839003283671067	1.5657565420905037	-0.43391038924803405	-0.19066630333195084	1.5929957744471688	-0.5007137703146474	-1.7442556449912658	1.8880304539581751	1.1828995814261043	-0.2199620728008529	2.0260709806007924	-0.5419511253232843	-0.2255317673784265	1.9750886956766955	-0.4266652030068614	-0.23129761955051878	1.8935200443996665	-0.3765340929852501	-0.24000951686911556	1.8244009099621088	-0.3886229367568819	-0.18484996210672752	1.980129903286323	-0.6084828654170739	-0.1753715712294342	1.9033674520832604	-0.6180772617284953	-0.1794067540504368	1.836521894136722	-0.6278818238664202
2	0.06666666666666667	-0.21328552862403444	1.8278913391007487	-0.4952456964814786	-0.23023199914168055	1.8265533511689922	-0.43590013879486195	-0.2986594863376571	1.7047998933755084	-0.4918292618211539	-0.5098966264086664	1.5741556371260288	-1.0851409937197658	-0.5678911029948313	1.5532928402829176	-1.23825111304939	-0.5859414310925272	1.5603427942711092	-1.2203756500684597	-0.49769836747544965	1.567638672909994	-1.068829883741299	-0.19935490809378073	1.83131384454932	-0.5503585874990504	-0.20297133442439683	1.7112690874296466	-0.5143502881854767	-0.24874426977789557	1.6109874013768	-0.4284643516778206	-0.25057695076631215	1.5614486880116056	-0.4108154771416426	-0.23839003283671067	1.5657565420905037	-0.43391038924803405	-0.19351433307013544	1.5938064742843963	-0.49618440520330537	-1.736233625673365	1.8878309926159595	1.1675894687833541	-0.22403812153496336	2.025708078280995	-0.5376400188194637	-0.2273134730234293	1.9761149308516803	-0.4246271676520463	-0.2331449807058153	1.893014327790279	-0.37421216910044436	-0.2408336508859364	1.8261385142036604	-0.3835068463865644	-0.18371933102609325	1.9800297269496747	-0.6137876963854462	-0.17761248066282562	1.904552097208266	-0.6362132393828603	-0.18024555196767575	1.832880013751741	-0.6307609005108739
3	0.1	-0.2152765100418825	1.8302921095525366	-0.49351943763411504	-0.23027310047181485	1.8284258582745312	-0.43633158879170464	-0.2986594863376571	1.7047998933755084	-0.4918292618211539	-0.5098966264086664	1.5741556371260288	-1.0851409937197658	-0.5678911029948313	1.5532928402829176	-1.23825111304939	-0.5859414310925272	1.5603427942711092	-1.2203756500684597	-0.49769836747544965	1.567638672909994	-1.068829883741299	-0.20121250522958975	1.833863472717962	-0.5570355025045782	-0.2067663474387335	1.7101438253235721	-0.5176671508674917	-0.24874426977789557	1.6109874013768	-0.4284643516778206	-0.25057695076631215	1.5614486880116056	-0.4108154771416426	-0.23839003283671067	1.5657565420905037	-0.43391038924803405	-0.19636236280832003	1.5946171741216237	-0.49165504009196337	-1.7429972525379103	1.889664435410793	1.1750320450355178	-0.227145613918902	2.023398205480071	-0.5380862675345598	-0.22635976971033803	1.9765257871745505	-0.4299301736101841	-0.23477613350391882	1.8951454405384802	-0.37230359135549856	-0.24687755015985716	1.828863204546919	-0.38080926946157345	-0.1856460106038298	1.981541961957197	-0.6118261018635585	-0.1805715809540762	1.9027153238932808	-0.63722843645827	-0.18334359563153396	1.8334890628426708	-0.6320438012869001
4	0.13333333333333333	-0.21983289963801073	1.8324792441749043	-0.49251360733682764	-0.2337485701058877	1.8299426750869425	-0.43228920806095467	-0.2986594863376571	1.7047998933755084	-0.4918292618211539	-0.5098966264086664	1.5741556371260288	-1.0851409937197658	-0.5678911029948313	1.5532928402829176	-1.23825111304939	-0.5859414310925272	1.5603427942711092	-1.2203756500684597	-0.49769836747544965	1.567638672909994	-1.068829883741299	-0.20394955166699497	1.8345904018416441	-0.5582584054708256	-0.2105613604530702	1.7090185632174977	-0.5209840135495066	-0.24874426977789557	1.6109874013768	-0.4284643516778206	-0.25057695076631215	1.5614486880116056	-0.4108154771416426	-0.23839003283671067	1.5657565420905037	-0.43391038924803405	-0.19921039254650463	1.5954278739588514	-0.4871256749806214	-1.7435498589124343	1.8871408621709156	1.1750571286827245	-0.22919854947521107	2.022100757937279	-0.5355509764449635	-0.2282485210478486	1.9750357709626751	-0.42727903182049226	-0.23744958710546119	1.8938664434983485	-0.3729777556007595	-0.2518422603578342	1.8259232943821018	-0.37353055457967915	-0.18862931424139937	1.9825023743336958	-0.6126078996335752	-0.18059002932516346	1.90180879338575	-0.6371202527220573	-0.18297195874996308	1.8338123013204473	-0.640344212286736
5	0.16666666666666666	-0.2218150345569689	1.832182906387013	-0.49024328899095626	-0.23656640813050883	1.8289311401968256	-0.4330380422891624	-0.2986594863376571	1.7047998933755084	-0.4918292618211539	-0.5098966264086664	1.5741556371260288	-1.0851409937197658	-0.5678911029948313	1.5532928402829176	-1.23825111304939	-0.5859414310925272	1.5603427942711092	-1.2203756500684597	-0.49769836747544965	1.567638672909994	-1.068829883741299	-0.20771275525572291	1.8333604846895866	-0.5623646670813546	-0.2143563734674069	1.7078933011114232	-0.5243008762315217	-0.24874426977789557	1.6109874013768	-0.4284643516778206	-0.25057695076631215	1.5614486880116056	-0.4108154771416426	-0.23839003283671067	1.5657565420905037	-0.43391038924803405	-0.20205842228468923	1.596238573796079	-0.4825963098692794	-1.7367524898889046	1.8870788979906943	1.1608986695642063	-0.2362080739961209	2.020105832156191	-0.5316991715478585	-0.230227460616769	1.975099777845357	-0.42512997513345935	-0.24028132760837978	1.8956745839412266	-0.3741773792798244	-0.25680697055581125	1.8229833842172845	-0.36625183969778485	-0.19040870663226012	1.9828924339391134	-0.6188271381942126	-0.18084548842599124	1.9004469838555382	-0.6370484635545574	-0.18465513541208262	1.8315903183751172	-0.6346891251272528
6	0.2	-0.2267713167624628	1.8248686129648632	-0.48797056233513497	-0.24192993512445132	1.8251148047104349	-0.42681573319936283	-0.2986594863376571	1.7047998933755084	-0.4918292618211539	-0.5098966264086664	1.5741556371260288	-1.0851409937197658	-0.5678911029948313	1.5532928402829176	-1.23825111304939	-0.5859414310925272	1.5603427942711092	-1.2203756500684597	-0.49769836747544965	1.567638672909994	-1.068829883741299	-0.21586853099135236	1.8233533907981214	-0.5525681317768761	-0.2181513864817436	1.7067680390053488	-0.5276177389135366	-0.24874426977789557	1.6109874013768	-0.4284643516778206	-0.25057695076631215	1.5614486880116056	-0.4108154771416426	-0.23839003283671067	1.5657565420905037	-0.43391038924803405	-0.2049064520228738	1.5970492736333064	-0.47806694475793743	-1.712433731233722	1.8867679116848222	1.11423473405053	-0.24865714958231352	2.0156439953975887	-0.5266642364546398	-0.23926746346549363	1.9728335241349553	-0.41959393114607424	-0.245418740507716	1.8919642163390602	-0.3639318806331797	-0.26177168075378826	1.8200434740524674	-0.35897312481589055	-0.2017268480137808	1.9799367538403625	-0.6187875406076907	-0.19238906454539234	1.90072822599638	-0.6285987538350887	-0.19398249878554608	1.829648910113003	-0.628175609561395
7	0.23333333333333334	-0.2347292118971292	1.824156847287875	-0.484369609827667	-0.2472934621183938	1.8212984692240441	-0.42059342410956335	-0.2986594863376571	1.7047998933755084	-0.4918292618211539	-0.5098966264086664	1.5741556371260288	-1.0851409937197658	-0.5678911029948313	1.5532928402829176	-1.23825111304939	-0.5859414310925272	1.5603427942711092	-1.2203756500684597	-0.49769836747544965	1.567638672909994	-1.068829883741299	-0.22183729486029552	1.8250790353621775	-0.5511258282811146	-0.22194639949608028	1.7056427768992743	-0.5309346015955516	-0.24874426977789557	1.6109874013768	-0.4284643516778206	-0.25057695076631215	1.5614486880116056	-0.4108154771416426	-0.23839003283671067	1.5657565420905037	-0.43391038924803405	-0.2077544817610584	1.597859973470534	-0.4735375796465955	-1.7066149938846134	1.8869142329610469	1.1010508467637137	-0.2578337513683356	2.016981675427209	-0.5304346963684801	-0.2460275778819031	1.9752842251141018	-0.4167086427422342	-0.24926381507549125	1.8915206660959472	-0.35952696301377474	-0.2667363909517653	1.81710356388765	-0.35169440993399625	-0.208939674556533	1.9818073110400891	-0.6154529819893432	-0.19690034959950561	1.8995101002675894	-0.6239480595850946	-0.2012991846634586	1.8231115908349877	-0.6238908077236482
